<?xml version="1.0" encoding="UTF-8" standalone="no"?>
<!-- Created with Inkscape (http://www.inkscape.org/) -->

<svg
   xmlns:dc="http://purl.org/dc/elements/1.1/"
   xmlns:cc="http://creativecommons.org/ns#"
   xmlns:rdf="http://www.w3.org/1999/02/22-rdf-syntax-ns#"
   xmlns:svg="http://www.w3.org/2000/svg"
   xmlns="http://www.w3.org/2000/svg"
   xmlns:sodipodi="http://sodipodi.sourceforge.net/DTD/sodipodi-0.dtd"
   xmlns:inkscape="http://www.inkscape.org/namespaces/inkscape"
   width="210mm"
   height="297mm"
   viewBox="0 0 744.09448819 1052.3622047"
   id="svg3401"
   version="1.1"
   inkscape:version="0.91 r13725"
   sodipodi:docname="peachlogo1.svg">
  <defs
     id="defs3403" />
  <sodipodi:namedview
     id="base"
     pagecolor="#ffffff"
     bordercolor="#666666"
     borderopacity="1.0"
     inkscape:pageopacity="0.0"
     inkscape:pageshadow="2"
     inkscape:zoom="1.5589418"
     inkscape:cx="127.86212"
     inkscape:cy="804.61914"
     inkscape:document-units="px"
     inkscape:current-layer="layer1"
     showgrid="false"
     inkscape:object-paths="true"
     inkscape:window-width="1680"
     inkscape:window-height="969"
     inkscape:window-x="0"
     inkscape:window-y="1"
     inkscape:window-maximized="1" />
  <metadata
     id="metadata3406">
    <rdf:RDF>
      <cc:Work
         rdf:about="">
        <dc:format>image/svg+xml</dc:format>
        <dc:type
           rdf:resource="http://purl.org/dc/dcmitype/StillImage" />
        <dc:title></dc:title>
      </cc:Work>
    </rdf:RDF>
  </metadata>
  <g
     inkscape:label="Layer 1"
     inkscape:groupmode="layer"
     id="layer1">
    <path
       style="fill:#000000;stroke:#22280b;stroke-width:9.65217972"
       id="path3447"
       d="m 217.00839,335.78962 c -6.23585,-4.89452 -13.92139,-8.67296 -20.77973,-13.08311 -1.58614,-1.02038 -3.07608,-2.11298 -4.61408,-3.16943 -5.96895,-4.50336 -11.21686,-9.47996 -15.37161,-14.92539 -2.7887,-3.6551 -3.49396,-5.14224 -5.77452,-9.02454 -6.0223,-11.26108 -10.82719,-22.86218 -14.54186,-34.61661 -0.85676,-2.71121 -1.5806,-5.44286 -2.37089,-8.16437 -3.96405,-15.85674 -6.25425,-31.91252 -8.30822,-47.94492 -0.61979,-6.18585 -1.4367,-12.40437 -1.05273,-18.61536 0.32027,-5.19206 1.61563,-10.2365 3.13666,-15.30166 2.19191,-6.31265 5.51983,-12.40023 10.26134,-17.96198 5.81044,-5.99414 15.21276,-9.40156 24.52872,-12.14695 5.14474,-1.16574 10.56096,-1.89619 15.97207,-2.00366 4.28613,-0.0858 6.79228,0.19532 11.10155,0.49834 13.90214,1.19154 26.58433,4.92507 39.01506,9.29986 13.18807,4.781 21.72982,12.38881 30.54732,20.5663 7.06412,7.04579 13.48292,14.43996 18.55934,22.31685 3.66392,5.68538 4.64243,7.99374 7.67037,13.93056 6.38997,12.92035 11.58788,26.16347 14.64689,39.69945 0.66882,2.95641 1.14921,5.93273 1.72362,8.89913 3.17076,16.81142 5.01331,33.71441 6.06356,50.65273 0.44863,10.66438 1.20149,21.37909 -0.0908,32.0313 -0.23669,1.94894 -0.62114,3.88747 -0.93084,5.83111 -1.60332,7.2526 -3.90916,14.45112 -7.27789,21.39898 -2.20969,4.55726 -3.21274,5.94716 -5.92128,10.34757 -4.59001,6.95218 -9.63299,13.93421 -16.76506,19.77286 -1.12681,0.92268 -2.36473,1.77335 -3.54703,2.65999 -1.28795,0.77444 -2.51833,1.59927 -3.86378,2.32199 -1.36248,0.73148 -2.7728,1.42428 -4.24787,2.03565 -8.90515,3.69044 -12.95661,5.98888 -21.35628,7.69834 -4.97123,1.01181 -7.69464,1.19975 -12.86894,1.78641 -16.40923,1.5164 -33.03473,-0.14361 -49.02516,-2.87402 -4.14089,-0.70678 -8.22811,-1.56422 -12.34213,-2.34639 -23.75397,-4.87474 -46.36878,-12.09559 -68.2776,-20.16016 -13.47162,-5.3637 -26.306051,-11.62598 -37.805352,-18.97149 -2.061583,-1.31688 -4.024899,-2.70932 -6.037341,-4.06387 -5.89868,-4.132 -11.263261,-8.65879 -15.785345,-13.59809 -5.21816,-5.69945 -9.408615,-11.82447 -13.615378,-17.91515 -9.067752,-13.6029 -16.616351,-27.68212 -23.060355,-42.01227 -4.497748,-10.5667 -7.251542,-21.5142 -7.787499,-32.5576 -0.11357,-2.31961 -0.04683,-4.6419 -0.06824,-6.96276 0.263437,-9.13572 1.789481,-18.28571 5.026612,-27.13969 2.052634,-5.61417 2.914466,-6.90864 5.685054,-12.33831 5.878492,-10.92942 14.042881,-21.11289 23.154105,-30.82102 6.741127,-6.85643 14.882652,-12.93848 23.166466,-18.8515 3.449636,-2.37466 6.99794,-4.70687 10.981927,-6.62808 5.492151,-2.64867 11.484699,-4.73084 17.266646,-7.0468 6.53754,-2.07928 13.41921,-3.41155 20.46795,-4.22882 8.12376,-0.88506 16.34459,-0.91299 24.52838,-0.5683 4.83029,0.24278 9.6491,0.58655 14.48375,0.78406 2.32963,0.0859 4.66322,0.0859 6.99526,0.0968 3.257,0.0243 6.51389,0.003 9.7708,-0.005 l -11.37465,5.877 0,0 c -3.25968,-0.003 -6.51943,-0.0243 -9.77909,0.006 -2.35111,0.006 -4.70354,-0.0243 -7.04795,-0.15266 -4.71831,-0.30303 -9.42594,-0.68642 -14.15108,-0.93235 -8.12587,-0.30848 -16.27904,-0.2172 -24.32629,0.74007 -7.00329,0.9366 -13.876339,2.31643 -20.322266,4.51796 2.996224,-1.26917 5.993819,-2.53689 8.988906,-3.80748 0.89327,-0.37904 -1.807111,0.73361 -2.683529,1.13266 -4.098578,1.86363 -7.753059,4.17027 -11.280372,6.5385 -8.445088,5.8882 -16.722947,11.96411 -23.659703,18.79813 -9.233576,9.65582 -17.564725,19.78051 -23.526045,30.69628 -2.859972,5.475 -3.640582,6.58402 -5.787017,12.24826 -3.329877,8.78712 -4.955074,17.87925 -5.223512,26.96925 0.02007,2.29922 -0.03345,4.59978 0.07962,6.8975 0.558286,10.97414 3.211255,21.86717 7.561228,32.39479 6.286878,14.32064 13.690076,28.39966 22.95794,41.8936 7.986222,11.36452 16.271425,22.28731 29.403533,31.13856 1.991383,1.34566 3.93585,2.72729 5.974099,4.03693 11.378338,7.31045 24.040008,13.57509 37.396968,18.91282 21.68516,8.16072 44.06681,15.52247 67.80728,20.1429 4.1387,0.75074 8.2508,1.57997 12.41616,2.25248 16.15336,2.60778 32.90517,4.03897 49.38628,2.27264 5.35235,-0.68524 7.79479,-0.86248 12.90023,-2.01843 1.74392,-0.39429 6.2374,-2.42682 5.12983,-1.39104 -1.63963,1.53337 -4.57944,2.05968 -6.90325,3.04969 -2.88841,1.23053 11.47367,-4.9547 8.2307,-4.16425 1.21461,-0.86681 2.48518,-1.69529 3.64361,-2.59987 7.34381,-5.735 12.57943,-12.69376 17.2373,-19.64452 2.71924,-4.3284 3.7737,-5.76303 5.97758,-10.25134 3.39039,-6.90438 5.70805,-14.06767 7.45091,-21.26525 0.32561,-1.93099 0.72806,-3.85638 0.97986,-5.79309 1.38656,-10.65768 0.75426,-21.38942 0.48875,-32.06848 -0.86357,-16.94324 -2.48355,-33.86572 -5.74704,-50.67104 -0.59038,-2.94564 -1.0915,-5.90079 -1.77142,-8.83658 -3.11779,-13.46644 -8.27418,-26.6573 -14.72661,-39.49964 -3.09852,-5.94161 -4.02482,-8.09835 -7.75097,-13.78179 -5.11362,-7.7999 -11.54443,-15.11822 -18.6305,-22.08136 -8.88843,-8.09025 -17.3713,-15.32168 -30.45845,-20.10881 -4.71124,-1.66668 -7.09571,-2.58588 -12.00999,-4.01068 -8.59973,-2.49327 -17.56771,-4.2371 -26.81392,-4.95375 -1.93603,-0.10775 -3.86779,-0.26345 -5.80802,-0.31152 -7.18421,-0.1795 -14.4375,0.60055 -21.17749,2.3771 -5.22485,1.74323 -7.1786,2.47448 6.32825,-2.89393 0.75768,-0.30057 -1.46705,0.66487 -2.15238,1.04509 -1.16511,0.64551 -2.58271,1.6806 -3.54772,2.46028 -0.60375,0.4886 -1.16351,1.00535 -1.74539,1.50768 -5.07957,5.4455 -8.57005,11.53589 -10.98093,17.83125 -1.62847,5.0214 -3.01884,10.03165 -3.44595,15.19347 -0.51415,6.21159 0.21529,12.439 0.73713,18.63391 1.78005,16.03869 3.95082,32.10102 8.00148,47.93904 0.79418,2.7078 1.52208,5.42601 2.38458,8.12336 3.7332,11.67392 8.68658,23.167 15.03404,34.25767 2.23376,3.7114 3.08451,5.37431 5.76737,8.88241 4.10941,5.37363 9.3124,10.25782 15.21608,14.69674 1.51616,1.04183 2.98375,2.12045 4.54843,3.12526 6.94472,4.45984 14.66336,8.29087 21.45229,12.88183 l -13.02982,0.13203 z"
       inkscape:connector-curvature="0"
       sodipodi:nodetypes="cccsccccccccccccccccccccccccccccccsccccccsccccccccccccccccccccccscccccccccccsscccccccccccccscccccccccccccccsccc" />
    <path
       style="fill:#000000;stroke:#22280b;stroke-width:6.1536293"
       id="path3449"
       d="m 172.64556,140.47345 c -0.27471,-3.37308 -0.55269,-6.74313 -0.69474,-10.12374 -0.2349,-4.64944 0.0725,-9.30874 0.83901,-13.90919 0.72951,-3.40453 2.04212,-6.6718 3.82205,-9.74734 1.89081,-3.11303 4.23256,-5.98911 6.64721,-8.793059 3.23942,-3.647743 7.27904,-6.572747 11.49717,-9.269152 6.90776,-4.139626 14.23783,-7.704724 21.73101,-10.928246 3.78944,-1.486269 7.57953,-2.980487 11.3914,-4.4216 1.79606,-0.680718 3.61143,-1.258429 5.54348,-1.527932 1.33211,-0.126507 2.63911,-0.385918 3.97527,-0.503137 1.0439,-0.09813 2.06365,-0.194997 3.03676,0.201951 0.84735,0.439303 1.26777,1.356972 1.55475,2.159553 0.34257,1.97159 0.24338,3.976905 0.0195,5.953417 -0.55334,3.350386 -1.61617,6.602576 -2.76734,9.822269 -1.17127,3.249868 -3.08522,6.217238 -4.79241,9.255924 -1.14863,1.822732 -2.11567,3.745002 -3.35727,5.521712 -0.85134,1.21828 -1.21923,1.55985 -2.23175,2.69038 -3.12973,3.04583 -6.69144,5.69837 -10.28356,8.29584 -3.85846,2.93586 -7.99256,5.55033 -12.2073,8.05988 -5.78895,3.22827 -11.8205,6.06304 -17.87986,8.85468 -3.13835,1.50148 -3.00882,1.45639 3.54031,-1.85581 0.45676,-0.23096 -0.9051,0.47413 -1.35972,0.70811 -2.66945,1.37404 -5.35077,2.7299 -8.01233,4.116 -2.68225,1.39689 22.57386,-11.57188 -2.10137,1.0924 20.35445,-10.4121 -16.85299,8.59256 3.93572,-2.02927 0,0 -7.48346,2.57803 -7.48346,2.57803 l 0,0 c 2.49509,-1.29122 4.98745,-2.58662 7.4853,-3.87354 6.42475,-3.31006 -23.41491,12.11842 2.25581,-1.12989 -14.81966,7.64111 0.83398,-0.42886 2.05811,-1.06606 1.82875,-0.95196 -3.66761,1.88849 -5.50288,2.83036 -0.46394,0.23793 0.92436,-0.48051 1.38797,-0.71857 8.65742,-4.44544 5.4865,-2.92918 9.91097,-5.01375 1.79227,-0.82267 3.59498,-1.63129 5.37056,-2.48233 0.63685,-0.30525 2.51923,-1.26546 1.89895,-0.93438 -2.27011,1.21148 -7.65808,3.92431 -2.74462,1.44309 4.23367,-2.4922 8.42009,-5.0556 12.26845,-8.01201 3.56497,-2.5591 7.07329,-5.18374 10.24936,-8.12852 0.8302,-0.88593 1.55842,-1.60721 2.26437,-2.57548 1.27776,-1.75269 2.18907,-3.70409 3.39133,-5.49549 1.69995,-3.015118 3.61333,-5.954291 4.83778,-9.159526 1.18171,-3.160905 2.23885,-6.363137 2.79519,-9.664827 0.19901,-1.876999 0.28515,-3.766759 -0.0326,-5.639806 -0.18727,-0.602204 -0.45089,-1.338116 -1.15815,-1.581909 -0.92586,-0.171776 -1.87632,-0.01742 -2.8087,0.04644 -1.31463,0.149136 -2.61497,0.377791 -3.92901,0.531571 -1.84832,0.338328 -3.59779,0.94541 -5.33728,1.588228 -3.73944,1.432706 -7.50689,2.810799 -11.20262,4.330604 -1.92721,0.835783 -3.23571,1.386332 -5.13845,2.281081 -0.88417,0.416094 -3.46442,1.774104 -2.63252,1.280366 1.28892,-0.76487 2.65483,-1.422547 4.00672,-2.095897 1.64442,-0.819003 -6.3871,3.342716 -4.78583,2.677672 -4.20091,2.633385 -8.25129,5.468734 -11.49868,9.049963 -2.41334,2.757526 -4.72116,5.60663 -6.6367,8.66273 -1.87154,2.99022 -3.18089,6.22883 -4.01487,9.5701 -0.8535,4.55502 -1.22791,9.17811 -0.92645,13.79504 0.17749,3.33379 0.42675,6.66223 0.92527,9.97199 0,0 -7.12536,3.30882 -7.12536,3.30882 z"
       inkscape:connector-curvature="0" />
    <path
       style="fill:#abc837;stroke:#22280b;stroke-width:0;stroke-miterlimit:4;stroke-dasharray:none"
       id="path3473"
       d="m 67.341231,342.57659 c 0.47292,-0.25941 0.937999,-0.53457 1.41874,-0.77823 3.773612,-1.9126 7.641739,-3.63349 11.437951,-5.49749 5.598064,-2.74872 6.784658,-3.40135 12.500688,-6.35543 9.02474,-4.935 18.16346,-9.65862 27.06523,-14.829 5.96028,-3.46187 8.01746,-3.06124 5.68701,-3.4822 8.96054,-5.86882 17.6785,-12.11737 26.55257,-18.12349 6.28245,-4.25638 12.63262,-8.41478 18.75637,-12.91271 3.81626,-3.00391 7.78782,-5.77692 11.7778,-8.52648 5.41462,-3.56722 10.74775,-7.26221 15.99936,-11.07866 5.17232,-3.94003 10.3901,-7.81804 15.431,-11.9363 3.57537,-2.99764 7.10384,-6.05493 10.79858,-8.89731 2.43359,-1.8964 5.07719,-3.48059 7.64459,-5.17329 4.93003,-3.20383 9.94054,-6.34647 15.24984,-8.84218 3.23448,-1.75655 6.57396,-3.28867 10.04487,-4.47341 3.80296,-1.23385 7.69994,-2.08781 11.64347,-2.66778 2.92188,-0.51794 5.87777,-0.75521 8.81294,-1.16935 1.7902,-0.25578 3.59157,-0.3507 5.38575,-0.56802 1.64031,-0.23388 3.29395,-0.29524 4.94727,-0.32863 1.17783,-0.0228 2.35574,-0.0335 3.53374,-0.0362 0,0 -5.84414,4.37316 -5.84414,4.37316 l 0,0 c -1.1635,-1e-5 -2.3272,-0.002 -3.49044,0.0266 -1.63967,0.055 -3.27657,0.1601 -4.90445,0.37783 -1.78188,0.20819 -3.57425,0.29641 -5.35117,0.55397 -2.90138,0.3631 -5.8174,0.60166 -8.7023,1.09972 -3.92404,0.60915 -7.80183,1.50337 -11.57477,2.78214 -3.44065,1.2598 -6.76053,2.80849 -10.00352,4.53718 -1.68431,0.8266 -1.62115,0.76787 -3.25594,1.68024 -0.53234,0.2971 -2.10773,1.22831 -1.5865,0.91101 9.16118,-5.57698 3.62861,-2.20795 1.68403,-0.89837 -2.56473,1.70907 -5.21724,3.28729 -7.68571,5.14124 -3.78252,2.82252 -7.37001,5.90287 -10.98601,8.9449 -5.05317,4.15775 -10.31361,8.03249 -15.50174,12.00788 -5.19897,3.80058 -10.46889,7.49905 -15.84242,11.03381 -3.99468,2.77099 -8.00709,5.51339 -11.83595,8.52801 -6.21329,4.57449 -12.68737,8.75579 -19.07169,13.06931 -8.92769,6.02666 -17.69937,12.29498 -26.69593,18.21218 -3.91572,2.36163 -11.73895,7.12861 -16.4272,9.82923 -8.91165,5.13347 -18.041041,9.855 -27.055367,14.79141 -6.167004,3.20652 -6.722471,3.53005 -12.737657,6.52965 -3.960672,1.97509 -7.991176,3.82377 -11.892171,5.92454 -0.524415,0.28241 -1.032816,0.59529 -1.549224,0.89293 0,0 5.6225,-4.6725 5.6225,-4.6725 z"
       inkscape:connector-curvature="0" />
    <path
       inkscape:connector-curvature="0"
       id="path3606"
       d="m 222.67019,242.6618 c -2.90075,-0.64784 -9.74981,-2.87311 -12.80532,-4.16053 -5.21747,-2.19766 -10.05553,-5.70416 -13.54813,-9.81737 -2.64016,-3.10921 -6.42728,-8.96237 -8.26267,-12.77008 -1.92526,-3.99422 -4.98766,-14.11211 -5.94969,-19.65851 -0.38566,-2.22247 -0.91837,-4.76557 -1.18398,-5.65128 -0.26614,-0.8855 -0.43684,-1.85641 -0.38066,-2.15706 0.16107,-0.86223 2.87477,1.12142 10.15521,7.42314 3.5888,3.10613 8.42767,7.22294 10.7535,9.14813 3.4105,2.82364 5.31002,4.76171 9.81868,10.0214 6.39988,7.46601 6.32607,7.36087 8.77194,12.49978 1.98625,4.17347 5.92524,15.4 5.4692,15.588 -0.14521,0.0597 -1.42219,-0.14977 -2.83762,-0.4659 z"
       style="fill:#bcd35f;stroke:#22280b;stroke-width:0;stroke-miterlimit:4;stroke-dasharray:none" />
    <path
       style="fill:#89a02c;stroke:#22280b;stroke-width:0;stroke-miterlimit:4;stroke-dasharray:none"
       id="path3477"
       d="m 35.241363,197.18151 c 0.647857,-0.24771 1.295736,-0.49543 1.943604,-0.74314 1.275928,-0.46117 2.556891,-0.90554 3.827772,-1.38349 8.032378,-3.02081 4.485972,-1.87062 13.461836,-5.01207 7.711179,-2.69883 8.975019,-3.03013 16.762672,-5.48542 9.993571,-2.90664 20.25224,-4.68553 30.592133,-4.86743 6.04053,-0.1063 8.07372,0.17103 14.10711,0.59654 13.26272,1.3019 26.31999,4.38698 39.21452,7.97031 9.03742,2.66631 18.09807,5.27843 26.91976,8.74229 3.78375,1.48571 4.82079,1.98467 8.48564,3.59779 6.38953,2.99417 12.74392,6.07838 18.90453,9.61621 3.84521,2.22518 7.64657,4.58696 11.19632,7.35984 2.58978,2.02301 3.25328,2.70746 5.74659,4.96314 6.58638,6.30893 13.05946,12.75503 19.40281,19.36203 6.85701,7.26509 13.67695,14.57555 20.3106,22.09156 5.44536,6.649 10.80272,13.38364 16.33312,19.9468 3.66238,4.46478 7.35813,8.8944 10.98727,13.39224 3.91063,4.70485 7.25134,9.9085 10.50512,15.1763 0.61953,1.02369 1.24417,2.04361 1.85858,3.0711 1.49926,2.50718 1.79766,3.09182 3.28439,5.51521 1.27771,2.08267 2.64355,4.08979 3.92412,6.16996 1.49513,2.67853 3.1439,5.24222 4.89169,7.72378 0,0 -7.32716,-1.39934 -7.32716,-1.39934 l 0,0 c -1.67538,-2.51743 -3.27291,-5.09623 -4.77548,-7.74482 -2.98079,-4.88469 -5.96979,-9.76035 -8.86384,-14.71003 -3.30144,-5.2499 -6.73341,-10.39363 -10.65497,-15.10385 -3.59887,-4.46644 -7.2471,-8.88323 -10.84359,-13.35212 -5.44381,-6.57668 -10.70941,-13.32916 -16.16393,-19.89478 -6.62345,-7.49838 -13.39956,-14.83228 -20.27165,-22.05058 -6.39607,-6.60109 -12.91654,-13.05168 -19.57083,-19.33241 -2.51158,-2.21279 -3.21834,-2.91691 -5.81908,-4.89968 -3.57526,-2.72571 -7.38492,-5.06104 -11.23026,-7.27857 -6.11991,-3.46686 -12.40952,-6.54594 -18.73699,-9.51685 -4.33279,-1.90349 -8.67337,-3.72693 -13.11044,-5.31663 -6.78003,-2.42913 -3.20771,-1.0351 -10.17496,-3.3384 -0.29782,-0.0985 0.60778,0.14437 0.91167,0.21654 -12.92415,-3.65404 -26.01668,-6.79104 -39.31731,-8.165 -6.05637,-0.45437 -8.0268,-0.73066 -14.09689,-0.67385 -10.385191,0.0972 -20.709904,1.75492 -30.764126,4.61095 -7.590343,2.38928 -9.146845,2.78241 -16.609226,5.514 -7.283245,2.66604 -6.349539,2.42934 -12.887994,5.23981 -1.176569,0.50573 -2.35878,0.99525 -3.538186,1.49285 -0.579214,0.25086 -1.158449,0.50173 -1.737685,0.75257 0,0 -7.07726,-2.85336 -7.07726,-2.85336 z"
       inkscape:connector-curvature="0" />
    <path
       style="fill:#88aa00;stroke:#4d4d4d;stroke-width:0;stroke-miterlimit:4;stroke-dasharray:none"
       d="m 293.49975,302.43273 c -0.47885,-1.77552 -2.30577,-4.56066 -5.05339,-7.70413 -1.36556,-1.56232 -3.30628,-4.15928 -4.31266,-5.77105 -1.00639,-1.61173 -2.25451,-3.51616 -2.77359,-4.23205 -1.4795,-2.04036 -1.70843,-3.50064 -1.56485,-9.98008 0.13248,-5.977 2.09812,-16.78069 3.45008,-18.9627 1.84472,-2.97726 3.5386,-2.61479 6.24443,1.33625 1.69943,2.48147 2.17312,2.88377 3.87626,3.29191 1.29636,0.31068 1.50528,0.28378 3.16126,-0.40636 4.01099,-1.67177 6.48965,-4.95534 10.06987,-13.33991 0.57614,-1.3493 1.55722,-3.31649 2.18022,-4.37156 0.67147,-1.13714 1.55209,-3.07776 2.16273,-4.76579 0.56659,-1.56612 1.34451,-3.5048 1.72876,-4.30815 l 0.69865,-1.46064 0.34519,1.8788 c 0.83461,4.5433 0.88955,7.97796 0.22616,14.1321 -1.20775,11.20405 -1.26064,12.09703 -0.84086,14.19638 0.66197,3.31079 1.1416,3.70208 5.3368,4.35351 l 2.37513,0.36821 2.18214,-0.86472 c 1.40372,-0.55624 2.69354,-1.28234 3.61579,-2.03541 0.78852,-0.64391 1.58673,-1.21348 1.77382,-1.26576 0.6126,-0.17036 1.72926,0.60374 2.12695,1.47559 0.37866,0.83023 0.36877,0.9568 -0.35162,4.49568 -0.90399,4.44107 -1.35535,5.64838 -3.13944,8.39744 -1.92495,2.96617 -3.41913,4.61384 -7.20993,7.95082 -3.22789,2.84144 -4.16045,3.46069 -10.76062,7.14523 -3.4357,1.91799 -4.9495,2.87906 -8.50692,5.40089 -2.92571,2.074 -4.04581,3.02263 -5.22498,4.42513 l -1.50087,1.78526 -0.31531,-1.16513 z"
       id="path3517"
       inkscape:connector-curvature="0" />
    <path
       style="fill:#88aa00;stroke:#22280b;stroke-width:0;stroke-miterlimit:4;stroke-dasharray:none"
       d="m 138.08459,181.34774 c -2.08597,-3.95824 -2.99125,-7.22881 -3.69662,-13.35546 -0.39043,-3.39078 -0.34501,-9.11276 0.11138,-14.03267 0.094,-1.01391 0.36834,-3.05882 0.60951,-4.54428 0.46238,-2.84786 0.81797,-4.24614 2.24599,-8.83141 0.42432,-1.36255 1.02101,-3.62672 1.32591,-5.03148 0.5387,-2.48174 0.86335,-3.59418 2.05952,-7.0645 0.74869,-2.17146 0.88528,-2.30467 0.88308,-0.86131 -0.002,1.78133 -0.24219,6.09049 -0.49026,8.82178 -0.12437,1.36824 -0.23329,3.18602 -0.2423,4.03949 -0.009,0.85346 -0.0592,3.26724 -0.11162,5.36394 -0.0834,3.33883 -0.0551,4.17616 0.22724,6.74403 0.76181,6.924 1.28915,8.24507 3.61995,9.06866 0.99852,0.35281 1.20165,0.35872 1.93574,0.0558 1.75489,-0.72412 3.63195,-3.46067 6.80614,-9.92252 0.52351,-1.06572 0.98645,-1.9254 1.02886,-1.91043 0.18469,0.0651 0.0859,2.61224 -0.18518,4.76958 -0.37201,2.96161 -1.48357,8.62704 -2.34591,11.95684 -0.95315,3.68035 -2.91251,8.66417 -4.49111,11.42353 -0.81811,1.4301 -3.78242,4.56343 -4.78394,5.05674 -0.86611,0.42662 -2.82183,0.98609 -3.03531,0.86832 -0.0722,-0.0397 -0.73447,-1.21649 -1.47125,-2.61459 z"
       id="path3574"
       inkscape:connector-curvature="0" />
    <path
       inkscape:connector-curvature="0"
       id="path3602"
       d="m 285.19494,228.45887 c -1.59408,-0.9169 -4.85531,-1.59447 -9.02094,-1.87438 -2.07032,-0.13912 -5.27894,-0.60316 -7.13026,-1.03123 -1.85128,-0.42804 -4.08047,-0.89212 -4.95371,-1.03129 -2.48894,-0.39659 -3.68339,-1.26727 -8.16352,-5.95045 -4.13271,-4.32007 -10.38215,-13.34936 -10.96907,-15.84823 -0.80082,-3.40967 0.65321,-4.35112 5.36033,-3.47061 2.95635,0.55298 3.57578,0.5025 5.06868,-0.41324 1.1363,-0.69704 1.26507,-0.86372 1.94801,-2.52269 1.65407,-4.01833 1.0849,-8.09282 -2.31227,-16.5532 -0.54673,-1.36149 -1.24372,-3.44636 -1.54952,-4.63282 -0.32932,-1.27887 -1.07879,-3.27382 -1.84064,-4.89921 -0.70656,-1.50815 -1.52755,-3.42897 -1.8239,-4.26873 l -0.5388,-1.52686 1.57259,1.08443 c 3.80277,2.62244 6.27028,5.01227 10.15283,9.83298 7.06846,8.77648 7.66248,9.4453 9.44378,10.63294 2.80916,1.87299 3.425,1.81053 6.85208,-0.69525 l 1.93985,-1.41911 0.93155,-2.15445 c 0.59927,-1.38591 0.99787,-2.81137 1.11749,-3.996 0.10226,-1.01286 0.26392,-1.98004 0.35926,-2.14931 0.3127,-0.55364 1.64969,-0.79585 2.5474,-0.46055 0.85481,0.31931 0.93732,0.41582 2.93026,3.4276 2.50109,3.77951 3.03564,4.95238 3.71799,8.15779 0.73625,3.45853 0.84479,5.68015 0.52389,10.72027 -0.27327,4.29167 -0.4948,5.38895 -2.55648,12.66136 -1.07317,3.78561 -1.46402,5.53561 -2.1963,9.83431 -0.60224,3.53531 -0.72349,4.99813 -0.56557,6.82365 l 0.20129,2.32363 -1.04683,-0.60092 z"
       style="fill:#44aa00;stroke:#22280b;stroke-width:0;stroke-miterlimit:4;stroke-dasharray:none" />
    <path
       inkscape:connector-curvature="0"
       id="path3576"
       d="m 118.97889,314.90479 c -5.83439,0.11718 -9.95357,-1.1709 -16.82062,-5.26 -3.800605,-2.263 -9.610279,-7.27385 -14.247753,-12.28867 -0.955782,-1.03329 -2.810711,-3.26092 -4.122267,-4.94998 -2.51444,-3.23819 -3.638805,-5.04571 -7.10118,-11.41622 -1.028852,-1.89306 -2.831555,-4.85524 -4.005984,-6.58255 -2.074793,-3.05161 -2.933534,-4.5603 -5.455041,-9.57711 -1.577581,-3.13945 -1.596662,-3.48546 -0.123203,-2.23715 1.818645,1.54018 6.017646,5.66154 8.596707,8.43652 1.291891,1.39029 3.056532,3.14203 3.921158,3.89329 0.865578,0.74944 3.28867,2.91764 5.38703,4.81396 3.341145,3.02031 4.221227,3.69452 7.088157,5.43064 7.730464,4.68113 9.532906,4.92781 12.373186,1.69333 1.2168,-1.38564 1.39696,-1.72435 1.71681,-3.22791 0.76453,-3.59438 -0.4232,-9.13077 -4.30646,-20.07468 -0.64048,-1.80492 -1.12221,-3.3297 -1.07053,-3.38858 0.22485,-0.2564 2.7437,2.10709 4.7164,4.42601 2.70821,3.18334 7.54596,9.94972 10.21013,14.28033 2.94455,4.78665 6.35873,12.40008 7.82567,17.45102 0.75998,2.61786 1.42136,10.33632 1.06684,12.45669 -0.30654,1.83366 -1.41152,5.6259 -1.71496,5.88568 -0.10301,0.0873 -1.87317,0.19386 -3.93391,0.23544 z"
       style="fill:#abc837;stroke:#22280b;stroke-width:0;stroke-miterlimit:4;stroke-dasharray:none" />
    <path
       style="fill:#aad400;stroke:#22280b;stroke-width:0;stroke-miterlimit:4;stroke-dasharray:none"
       d="m 257.6197,253.44223 c -0.13842,-2.51056 0.2015,-8.61396 0.63518,-11.41125 0.74019,-4.77627 2.83364,-9.57598 5.86027,-13.44029 2.28787,-2.92111 6.90452,-7.46287 10.07225,-9.90916 3.32286,-2.56602 12.21496,-7.59803 17.27697,-9.77655 2.02833,-0.87306 4.32531,-1.94616 5.10441,-2.38456 0.77861,-0.439 1.66421,-0.82212 1.9669,-0.85256 0.86824,-0.0873 -0.32211,2.60908 -4.4544,10.09058 -2.03695,3.68772 -4.71461,8.64233 -5.95043,11.01016 -1.81272,3.47228 -3.17244,5.49844 -7.03167,10.47423 -5.47813,7.06298 -5.39672,6.9767 -9.68005,10.25297 -3.47862,2.66068 -13.20349,8.68179 -13.50292,8.36027 -0.0951,-0.10249 -0.22869,-1.18852 -0.29618,-2.41358 z"
       id="path3582"
       inkscape:connector-curvature="0" />
    <path
       inkscape:connector-curvature="0"
       id="path3584"
       d="m 166.36284,189.66983 c -0.20118,-2.0955 -0.14381,-7.23704 0.1073,-9.61291 0.42827,-4.05667 1.94948,-8.22749 4.2582,-11.67908 1.7452,-2.60915 5.31494,-6.73981 7.78816,-9.01224 2.59435,-2.38365 9.60223,-7.22389 13.61602,-9.40403 1.60832,-0.87369 3.42664,-1.93387 4.04073,-2.35588 0.61369,-0.42246 1.31583,-0.80555 1.5594,-0.8522 0.69864,-0.13388 -0.16752,2.21025 -3.24115,8.77213 -1.51512,3.23446 -3.50299,7.57592 -4.41757,9.64769 -1.34154,3.03813 -2.36844,4.83203 -5.31054,9.27377 -4.1763,6.3049 -4.11356,6.22688 -7.45893,9.27312 -2.71688,2.47391 -10.36263,8.20167 -10.61608,7.95298 -0.0806,-0.0793 -0.22713,-0.98064 -0.32528,-2.00316 z"
       style="fill:#abc837;stroke:#22280b;stroke-width:0;stroke-miterlimit:4;stroke-dasharray:none" />
    <path
       inkscape:connector-curvature="0"
       id="path3588"
       d="m 201.12772,205.02938 c -0.002,-1.53068 -0.74611,-4.16353 -2.05786,-7.28279 -0.65193,-1.55032 -1.50897,-4.05637 -1.90449,-5.56903 -0.39554,-1.51265 -0.9035,-3.3127 -1.12881,-4.0001 -0.64218,-1.9592 -0.53043,-3.18258 0.76371,-8.36114 1.19379,-4.77697 4.54003,-13.03971 5.87334,-14.5028 1.81924,-1.99631 2.91852,-1.33997 4.05253,2.4196 0.71223,2.36122 0.96413,2.78673 2.06138,3.48176 0.83518,0.52907 0.98399,0.55246 2.25137,0.35432 3.06979,-0.48 5.38199,-2.58601 9.39355,-8.55596 0.64556,-0.9607 1.68389,-2.33097 2.30743,-3.04504 0.67205,-0.76961 1.63631,-2.14014 2.36811,-3.36577 0.67896,-1.13712 1.57218,-2.52824 1.98491,-3.09135 l 0.75043,-1.02384 -0.10892,1.58492 c -0.26352,3.83263 -0.85929,6.60595 -2.45127,11.41097 -2.89833,8.7479 -3.09947,9.45446 -3.19775,11.23277 -0.15501,2.80451 0.10301,3.22243 2.87107,4.64996 l 1.56727,0.80773 1.66182,-0.22514 c 1.06902,-0.14482 2.09096,-0.45073 2.86481,-0.85753 0.66164,-0.34782 1.31625,-0.6338 1.4547,-0.63553 0.45318,-0.005 1.07915,0.85794 1.19211,1.64459 0.10754,0.74909 0.0774,0.84871 -1.0714,3.53879 -1.44162,3.37588 -1.97508,4.24932 -3.71048,6.07524 -1.87241,1.9701 -3.20506,2.97294 -6.43045,4.83922 -2.74644,1.58914 -3.5027,1.88611 -8.72635,3.42661 -2.71916,0.8019 -3.93864,1.24849 -6.85299,2.50967 -2.39684,1.03721 -3.34296,1.5586 -4.4135,2.4322 l -1.36263,1.11199 -0.002,-1.00469 z"
       style="fill:#abc837;stroke:#22280b;stroke-width:0;stroke-miterlimit:4;stroke-dasharray:none" />
    <path
       style="fill:#aad400;stroke:#22280b;stroke-width:0;stroke-miterlimit:4;stroke-dasharray:none"
       d="m 94.598902,178.38513 c -0.283796,-1.59624 -1.599267,-4.19598 -3.638333,-7.19129 -1.013423,-1.48871 -2.431757,-3.93395 -3.151811,-5.43389 -0.720077,-1.49994 -1.618596,-3.27749 -1.996724,-3.95015 -1.077722,-1.91713 -1.177895,-3.21524 -0.684681,-8.87188 0.454974,-5.218 2.673345,-14.49595 3.893678,-16.28473 1.665104,-2.44068 3.013848,-1.97259 4.972136,1.72563 1.229918,2.32269 1.589578,2.71691 2.943159,3.22578 1.030292,0.38736 1.200823,0.38244 2.580176,-0.0739 3.340988,-1.10536 5.536608,-3.75757 8.919898,-10.77497 0.54446,-1.12927 1.45237,-2.76312 2.01759,-3.63079 0.6092,-0.93514 1.4343,-2.55468 2.02638,-3.97727 0.54932,-1.31986 1.29126,-2.94687 1.64876,-3.61555 l 0.65,-1.21578 0.1698,1.67468 c 0.41052,4.04971 0.2551,7.0599 -0.63955,12.38558 -1.62875,9.69578 -1.72351,10.47242 -1.5062,12.34672 0.34263,2.95591 0.70776,3.341 4.06252,4.28482 l 1.89937,0.53383 1.81501,-0.56219 c 1.16757,-0.36163 2.25292,-0.88202 3.04257,-1.45878 0.67514,-0.49313 1.35382,-0.92038 1.50816,-0.94945 0.5052,-0.0952 1.36332,0.68235 1.6342,1.48064 0.2579,0.76019 0.24257,0.87005 -0.546,3.90234 -0.98952,3.80533 -1.4248,4.82149 -3.02759,7.06792 -1.72933,2.42383 -3.03359,3.73238 -6.29342,6.31442 -2.77577,2.1986 -3.56599,2.65732 -9.118,5.29315 -2.89008,1.37207 -4.17024,2.07811 -7.19391,3.96769 -2.486743,1.55403 -3.447769,2.28426 -4.482994,3.40636 l -1.317667,1.42834 -0.187056,-1.04759 z"
       id="path3590"
       inkscape:connector-curvature="0" />
    <path
       inkscape:connector-curvature="0"
       id="path3598"
       d="m 76.493406,337.27707 c -1.59408,-0.9169 -4.85531,-1.59447 -9.02094,-1.87438 -2.07032,-0.13912 -5.27894,-0.60316 -7.13026,-1.03123 -1.85128,-0.42804 -4.08047,-0.89212 -4.95371,-1.03129 -2.48894,-0.39659 -3.68339,-1.26727 -8.16352,-5.95045 -4.13271,-4.32007 -10.38215,-13.34936 -10.96907,-15.84823 -0.80082,-3.40967 0.65321,-4.35112 5.36033,-3.47061 2.95635,0.55298 3.57578,0.5025 5.06868,-0.41324 1.1363,-0.69704 1.26507,-0.86372 1.94801,-2.52269 1.65407,-4.01833 1.0849,-8.09282 -2.31227,-16.5532 -0.54673,-1.36149 -1.24372,-3.44636 -1.54952,-4.63282 -0.32932,-1.27887 -1.07879,-3.27382 -1.84064,-4.89921 -0.70656,-1.50815 -1.52755,-3.42897 -1.8239,-4.26873 l -0.5388,-1.52686 1.57259,1.08443 c 3.80277,2.62244 6.27028,5.01227 10.15283,9.83298 7.06846,8.77648 7.66248,9.4453 9.44378,10.63294 2.80916,1.87299 3.425,1.81053 6.85208,-0.69525 l 1.93985,-1.41911 0.93155,-2.15445 c 0.59927,-1.38591 0.99787,-2.81137 1.11749,-3.996 0.10226,-1.01286 0.26392,-1.98004 0.35926,-2.14931 0.3127,-0.55364 1.64969,-0.79585 2.5474,-0.46055 0.85481,0.31931 0.93732,0.41582 2.93026,3.4276 2.50109,3.77951 3.035631,4.95238 3.717981,8.15779 0.73625,3.45853 0.84479,5.68015 0.52389,10.72027 -0.27327,4.29167 -0.4948,5.38895 -2.556471,12.66136 -1.07317,3.78561 -1.46402,5.53561 -2.1963,9.83431 -0.60224,3.53531 -0.72349,4.99813 -0.56557,6.82365 l 0.20129,2.32363 -1.04683,-0.60092 z"
       style="fill:#89a02c;stroke:#22280b;stroke-width:0;stroke-miterlimit:4;stroke-dasharray:none" />
    <path
       style="fill:#aad400;stroke:#22280b;stroke-width:0;stroke-miterlimit:4;stroke-dasharray:none"
       d="m 183.40524,272.0364 c -1.70294,-0.962 -5.18688,-1.67289 -9.63698,-1.96657 -2.2117,-0.14596 -5.63943,-0.63282 -7.61718,-1.08195 -1.9777,-0.44909 -4.35912,-0.936 -5.29199,-1.08201 -2.65891,-0.4161 -3.93493,-1.3296 -8.72101,-6.24312 -4.41493,-4.53255 -11.09114,-14.00594 -11.71814,-16.62771 -0.85551,-3.57738 0.69782,-4.56513 5.72638,-3.64131 3.15824,0.58018 3.81997,0.52721 5.41482,-0.43357 1.2139,-0.73132 1.35146,-0.9062 2.08104,-2.64676 1.76703,-4.21597 1.15899,-8.49086 -2.47017,-17.36736 -0.58407,-1.42846 -1.32866,-3.61587 -1.65534,-4.86068 -0.35181,-1.34177 -1.15246,-3.43484 -1.96634,-5.14018 -0.75481,-1.58232 -1.63186,-3.59762 -1.94845,-4.47868 l -0.57559,-1.60196 1.67998,1.13777 c 4.06246,2.75142 6.69847,5.25879 10.84616,10.31661 7.55116,9.20814 8.18575,9.90986 10.08869,11.15591 3.001,1.96511 3.65889,1.89958 7.32001,-0.72945 l 2.07232,-1.4889 0.99516,-2.26042 c 0.6402,-1.45407 1.06602,-2.94964 1.19381,-4.19254 0.10924,-1.06268 0.28194,-2.07743 0.38379,-2.25502 0.33405,-0.58087 1.76235,-0.83499 2.72136,-0.4832 0.91319,0.33501 1.00133,0.43627 3.13037,3.59618 2.67189,3.9654 3.24294,5.19596 3.97189,8.55903 0.78653,3.62863 0.90248,5.95952 0.55966,11.24753 -0.29193,4.50276 -0.52859,5.65401 -2.73106,13.2841 -1.14645,3.97181 -1.56399,5.80788 -2.34628,10.31801 -0.64337,3.70919 -0.7729,5.24396 -0.60419,7.15926 l 0.21503,2.43792 -1.11832,-0.63048 z"
       id="path3600"
       inkscape:connector-curvature="0" />
    <path
       style="fill:#55d400;stroke:#22280b;stroke-width:0;stroke-miterlimit:4;stroke-dasharray:none"
       d="m 155.95827,293.97866 c -2.90075,-0.64784 -9.74981,-2.87311 -12.80532,-4.16053 -5.21747,-2.19766 -10.05553,-5.70416 -13.54813,-9.81737 -2.64016,-3.10921 -6.42728,-8.96237 -8.26267,-12.77008 -1.92526,-3.99422 -4.98766,-14.11211 -5.94969,-19.65851 -0.38566,-2.22247 -0.91837,-4.76557 -1.18398,-5.65128 -0.26614,-0.8855 -0.43684,-1.85641 -0.38066,-2.15706 0.16107,-0.86223 2.87477,1.12142 10.15521,7.42314 3.5888,3.10613 8.42767,7.22294 10.7535,9.14813 3.4105,2.82364 5.31002,4.76171 9.81868,10.0214 6.39988,7.46601 6.32607,7.36087 8.77194,12.49978 1.98625,4.17347 5.92524,15.4 5.4692,15.588 -0.14521,0.0597 -1.42219,-0.14977 -2.83762,-0.4659 z"
       id="path3604"
       inkscape:connector-curvature="0" />
    <path
       style="fill:#ff9955;stroke:#4d4d4d;stroke-width:0;stroke-miterlimit:4;stroke-dasharray:none"
       d="m 234.24607,400.31515 c -9.20134,-0.87391 -12.80154,-1.30123 -19.2772,-2.28805 -24.48598,-3.7314 -49.4506,-10.4825 -77.78918,-21.03627 -20.29816,-7.55937 -40.81215,-18.82148 -53.143682,-29.17569 -4.278799,-3.59272 -8.160934,-7.41911 -7.834713,-7.72222 0.109176,-0.10144 2.545785,-1.35658 5.414686,-2.78922 9.768129,-4.87785 28.273049,-15.01898 41.371779,-22.6727 5.00446,-2.92415 11.04266,-6.84504 20.19833,-13.11572 l 10.9958,-7.53098 2.47828,0.29127 2.47827,0.29128 -0.46668,-1.69017 c -0.25667,-0.9296 -0.40077,-1.73713 -0.32022,-1.79453 0.0806,-0.0574 0.79885,-0.55462 1.59621,-1.10494 l 1.44975,-1.00058 2.72551,5.34591 c 5.17145,10.14347 10.80602,17.61721 18.06919,23.96711 5.54605,4.84869 9.92961,7.9072 19.64339,13.70565 5.10759,3.04887 11.16541,7.16882 15.42177,10.48841 3.85546,3.00692 7.15661,5.47127 7.33588,5.47632 0.17927,0.005 0.24282,-0.24594 0.14122,-0.55778 -0.22702,-0.69678 -2.50829,-11.098 -2.50829,-11.4363 0,-0.13388 4.64354,-0.25776 10.31897,-0.2753 5.67544,-0.0175 10.69726,-0.18068 11.15959,-0.36255 0.65904,-0.25925 -1.25142,-1.70646 -8.84483,-6.7001 -5.327,-3.50318 -13.15535,-8.38774 -17.39633,-10.85457 -8.98416,-5.22578 -15.15436,-9.73372 -20.1211,-14.70046 -5.78274,-5.78274 -9.64065,-11.46746 -15.05335,-22.18143 l -2.37962,-4.71025 1.08736,-0.83965 c 0.59806,-0.46181 5.1696,-3.64345 10.159,-7.0703 10.07063,-6.9168 23.16015,-16.62841 29.30182,-21.74012 2.20665,-1.83659 4.32373,-3.33926 4.70462,-3.33926 0.38088,0 0.69252,-0.28067 0.69252,-0.6237 0,-0.6723 6.95064,-6.25527 7.90521,-6.34971 0.60792,-0.0601 9.02658,8.6296 19.05995,19.67368 4.66777,5.13798 22.82885,27.13588 35.3873,42.86343 2.95432,3.69985 6.6628,9.40221 14.30662,21.99869 4.31444,7.10989 8.01763,12.9951 8.22932,13.07826 1.69184,0.66461 -1.54482,16.39413 -5.27979,25.65873 -5.59598,13.88081 -16.82528,29.12543 -26.20709,35.5781 -5.18203,3.56413 -14.23815,5.08783 -31.40283,5.28355 -6.48621,0.074 -12.60956,0.0569 -13.60744,-0.0378 l 0,-2e-5 z"
       id="path4441"
       inkscape:connector-curvature="0" />
    <path
       style="fill:#ff9955;stroke:#4d4d4d;stroke-width:0;stroke-miterlimit:4;stroke-dasharray:none"
       d="m 77.53375,334.37787 c 0,-3.30601 1.196525,-9.57163 3.381203,-17.70575 1.305131,-4.85932 1.70103,-7.2994 1.91786,-11.82051 0.351353,-7.32595 -0.417399,-11.10809 -3.227535,-15.87898 -2.440877,-4.14399 -3.608082,-5.41194 -4.981937,-5.41194 -1.408629,0 -1.93221,0.72247 -2.301014,3.17507 -0.509003,3.38495 -2.026024,5.95851 -4.47844,7.59748 -1.213174,0.81078 -2.677116,1.47414 -3.253203,1.47414 -1.719262,0 -4.695586,-2.66179 -9.402507,-8.40887 -2.443885,-2.98395 -5.585013,-6.61142 -6.980283,-8.06104 -2.732858,-2.83933 -7.296355,-6.47822 -7.663651,-6.11092 -0.123958,0.12396 0.520249,1.93854 1.431571,4.03241 0.911323,2.09387 2.126441,5.23581 2.700263,6.9821 0.573821,1.74629 1.752748,5.21618 2.619838,7.71088 0.867089,2.4947 1.704508,5.55637 1.860931,6.80372 l 0.284407,2.26791 -1.898009,-3.62865 C 36.909715,277.06553 32.480965,260.63348 33.240132,244.32591 c 0.738516,-15.86395 5.208944,-28.93319 14.930498,-43.64912 2.705927,-4.09607 2.836386,-4.21638 5.972553,-5.50773 8.505549,-3.50225 22.576822,-8.04394 30.194286,-9.74559 15.031338,-3.35784 30.577361,-3.58767 47.852821,-0.70745 2.99364,0.49911 5.80017,1.0151 6.23674,1.14665 0.68928,0.20769 0.79377,0.85571 0.79377,4.92277 0,7.53862 2.83936,30.62856 5.44032,44.24116 0.5004,2.61893 0.90982,5.01724 0.90982,5.32958 0,0.36166 -0.66966,0.56787 -1.84414,0.56787 -5.67446,0 -4.81541,4.14156 3.00038,14.46508 3.14329,4.15184 3.97791,5.6221 4.96466,8.74571 1.64255,5.1996 5.40457,15.15964 7.28222,19.27986 0.86078,1.88887 1.56506,3.5929 1.56506,3.78672 0,0.19383 -0.65776,0.76888 -1.46169,1.27789 l -1.4617,0.92548 -1.5051,-4.1694 c -3.29092,-9.11646 -5.4628,-12.49949 -14.308,-22.28693 -4.6247,-5.11734 -26.03994,-23.38418 -27.4154,-23.38487 -0.79184,-4e-4 -0.72145,0.83754 0.58896,7.01132 2.31174,10.89138 4.9735,18.90809 7.97945,24.03264 6.83903,11.65917 12.99831,16.97787 24.16352,20.8658 2.26685,0.78935 4.2236,1.56726 4.34834,1.72867 0.21976,0.28438 -7.4661,5.7114 -19.85962,14.02296 -3.31396,2.22247 -5.90433,4.23671 -5.75639,4.47609 0.14795,0.23938 0.0695,0.43524 -0.17426,0.43524 -0.24379,0 -0.75446,0.11942 -1.13481,0.26537 -0.59488,0.22828 -0.6238,0.0222 -0.20688,-1.47414 0.28778,-1.03283 0.3908,-3.95177 0.25359,-7.18505 -0.18964,-4.46866 -0.48075,-6.1907 -1.62277,-9.59942 -2.89888,-8.65255 -7.14256,-16.27215 -14.56298,-26.14802 -3.33006,-4.43198 -7.08364,-8.37155 -7.54078,-7.9144 -0.15202,0.15201 0.63603,2.99684 1.75123,6.32184 3.91015,11.65832 4.41538,16.77882 1.97166,19.98271 -2.38844,3.1314 -4.42206,3.08378 -10.370554,-0.24281 -4.891697,-2.73559 -8.13327,-5.44702 -18.072311,-15.11671 -8.382458,-8.15527 -10.401988,-9.90262 -10.401988,-9.00003 0,0.64826 4.060506,8.18516 6.34812,11.78304 1.427565,2.24523 3.867539,6.32746 5.422163,9.07163 1.554624,2.74416 3.981719,6.60482 5.393545,8.57925 3.015009,4.21644 9.863841,11.3206 14.36007,14.89542 6.377875,5.07085 14.053635,8.5028 19.016995,8.5028 1.39046,0 2.52811,0.15562 2.52811,0.34583 0,0.65387 -39.816855,21.87966 -41.043429,21.87966 -0.127856,0 -0.232461,-1.21743 -0.232461,-2.70541 z"
       id="path4443"
       inkscape:connector-curvature="0" />
    <path
       style="fill:#ff9955;stroke:#4d4d4d;stroke-width:0;stroke-miterlimit:4;stroke-dasharray:none"
       d="m 59.775734,185.70053 c 5.27697,-5.88239 8.485312,-9.12559 11.900251,-12.02956 3.827545,-3.25484 13.710617,-10.7629 14.167508,-10.7629 0.16116,0 0.830191,1.07159 1.486735,2.38131 0.656544,1.30971 2.30693,4.1476 3.667525,6.30642 2.692515,4.27213 4.13932,8.02904 3.1895,8.28217 -0.303252,0.0808 -3.071275,0.48636 -6.15116,0.90121 -6.404934,0.86273 -16.858358,3.45468 -24.768908,6.14152 -2.981951,1.01283 -5.605394,1.84151 -5.829872,1.84151 -0.224479,0 0.827811,-1.37776 2.338421,-3.06168 z"
       id="path4445"
       inkscape:connector-curvature="0" />
    <path
       style="fill:#ff9955;stroke:#4d4d4d;stroke-width:0;stroke-miterlimit:4;stroke-dasharray:none"
       d="m 133.55104,182.83663 c -8.12551,-1.85105 -16.63645,-2.80122 -27.66846,-3.08894 l -10.885951,-0.2839 1.640093,-1.6131 c 1.880868,-1.8499 5.999798,-4.36845 12.194138,-7.45619 5.63977,-2.81131 9.24056,-5.40774 12.63125,-9.10809 2.51604,-2.74581 3.1814,-3.94318 4.83298,-8.69731 0.13813,-0.39761 1.42981,-0.56698 4.324,-0.56698 3.71485,0 4.10429,0.0793 3.89937,0.79377 -0.12521,0.43657 -0.35655,3.14105 -0.51409,6.00995 -0.47605,8.66937 1.1905,17.94534 4.13571,23.01925 l 1.11896,1.92772 -1.03968,-0.0548 c -0.57182,-0.0301 -2.67257,-0.42676 -4.66832,-0.88141 z"
       id="path4447"
       inkscape:connector-curvature="0" />
    <path
       style="fill:#ff9955;stroke:#4d4d4d;stroke-width:0;stroke-miterlimit:4;stroke-dasharray:none"
       d="m 143.66105,160.92896 c -1.02494,-0.77869 -1.66974,-2.55935 -2.12061,-5.8562 l -0.36949,-2.70174 2.03651,0.27913 c 1.12008,0.15353 3.24766,0.27914 4.72795,0.27914 1.92898,0 2.64989,0.16062 2.54479,0.56697 -0.37905,1.46544 -4.76107,8.0191 -5.36284,8.02056 -0.37421,9.1e-4 -1.02955,-0.26362 -1.45631,-0.58786 z"
       id="path4449"
       inkscape:connector-curvature="0" />
    <path
       style="fill:#ff9955;stroke:#4d4d4d;stroke-width:0;stroke-miterlimit:4;stroke-dasharray:none"
       d="m 163.30682,190.51398 -2.90206,-0.91876 0.28577,-4.83893 c 0.31044,-5.25645 1.88698,-12.47512 3.76649,-17.24599 2.52122,-6.39975 8.68746,-15.26224 11.33667,-16.29376 2.0698,-0.80591 7.46823,-1.46232 12.02633,-1.46232 l 4.20128,0 -3.16782,1.95309 c -7.55702,4.65921 -12.61353,9.09799 -16.95853,14.88678 -4.48041,5.96919 -6.2372,12.26201 -5.82576,20.86777 0.10576,2.21201 0.18046,4.01037 0.16599,3.99636 -0.0145,-0.014 -1.33222,-0.43892 -2.92836,-0.94424 z"
       id="path4451"
       inkscape:connector-curvature="0" />
    <path
       style="fill:#ff9955;stroke:#4d4d4d;stroke-width:0;stroke-miterlimit:4;stroke-dasharray:none"
       d="m 194.55771,198.86363 c -11.72845,-10.02787 -14.06101,-11.67519 -14.06101,-9.93027 0,0.3436 0.3305,2.08823 0.73444,3.87696 0.40395,1.78873 0.63653,3.35014 0.51686,3.46982 -0.11968,0.11968 -3.41298,-0.86622 -7.31845,-2.19087 l -7.10085,-2.40846 3.96435,-2.93344 c 10.13607,-7.50024 14.07344,-12.89334 22.01053,-30.14832 l 3.9642,-8.61804 2.6138,0.13517 c 5.44395,0.28152 23.13159,3.78291 25.39789,5.02768 0.38705,0.21259 -0.17016,1.27818 -1.81432,3.46966 -1.30512,1.73956 -3.32968,4.50772 -4.49903,6.15146 -2.65279,3.72899 -4.82153,5.65683 -7.1477,6.35377 -2.47765,0.74232 -3.52893,-0.0397 -4.99412,-3.71519 -0.97464,-2.44491 -1.34962,-2.93005 -2.35491,-3.04675 -0.89479,-0.10387 -1.43473,0.19691 -2.1456,1.19524 -2.06447,2.89928 -5.56372,12.63492 -6.46129,17.97665 l -0.56784,3.37944 2.82086,8.47245 c 1.55148,4.65985 2.76342,8.52782 2.69321,8.59548 -0.0702,0.0677 -2.88317,-2.23293 -6.25102,-5.11244 z"
       id="path4453"
       inkscape:connector-curvature="0" />
    <path
       style="fill:#ff9955;stroke:#4d4d4d;stroke-width:0;stroke-miterlimit:4;stroke-dasharray:none"
       d="m 229.66198,225.5406 c -7.41502,-7.20907 -12.50822,-11.08216 -20.68264,-15.72799 -2.92004,-1.65956 -5.63515,-3.3776 -6.03357,-3.81785 -0.67301,-0.74367 -0.61815,-0.86584 0.77335,-1.72216 1.89301,-1.16495 7.28817,-3.28622 11.70333,-4.60151 4.75076,-1.41528 9.21356,-3.86583 12.40518,-6.81177 4.27208,-3.94323 7.25532,-10.97651 5.21455,-12.29379 -0.22069,-0.14245 -1.61687,0.13956 -3.10262,0.62669 -2.93891,0.96358 -4.19607,0.74566 -6.598,-1.1437 -1.65229,-1.29969 -1.45099,-3.34176 1.12735,-11.43637 1.2335,-3.87255 2.48763,-8.28576 2.78694,-9.80714 0.52428,-2.66485 0.58748,-2.75532 1.7261,-2.47049 4.96494,1.24196 18.71627,7.55328 20.13926,9.24313 1.66712,1.97973 8.27452,20.55989 8.74994,24.60501 0.39609,3.37013 -0.70445,7.23996 -2.36918,8.33074 -1.02092,0.66893 -1.81478,0.74004 -5.25614,0.47083 -3.49849,-0.27368 -4.17276,-0.20925 -4.92388,0.4705 -1.09449,0.9905 -1.08691,2.16698 0.0298,4.6274 1.2763,2.81196 5.90628,9.4255 9.52738,13.60905 l 3.13556,3.62258 -2.13232,0.80121 c -2.91254,1.09437 -11.96323,5.63458 -16.05683,8.05478 l -3.35934,1.9861 -6.80424,-6.61525 z"
       id="path4455"
       inkscape:connector-curvature="0" />
    <path
       style="fill:#ff9955;stroke:#4d4d4d;stroke-width:0;stroke-miterlimit:4;stroke-dasharray:none"
       d="m 269.99935,185.34885 c -1.58369,-1.24833 -7.40445,-8.05997 -7.40445,-8.66491 0,-0.20846 2.14317,1.75687 4.76261,4.36738 2.61943,2.61052 4.7626,4.90313 4.7626,5.09469 0,0.61039 -0.64054,0.36962 -2.12076,-0.79716 z"
       id="path4461"
       inkscape:connector-curvature="0" />
    <path
       style="fill:#ff9955;stroke:#4d4d4d;stroke-width:0;stroke-miterlimit:4;stroke-dasharray:none"
       d="m 256.08826,252.69348 c -0.70974,-0.86012 -5.13668,-5.56536 -9.83763,-10.4561 l -8.54717,-8.89225 3.71428,-2.02602 c 5.28181,-2.88104 10.98625,-5.23858 15.33895,-6.33928 3.39183,-0.85772 4.04717,-0.89382 6.79932,-0.37453 l 3.04571,0.57469 -2.25116,2.9371 c -4.70847,6.14315 -6.26253,10.7986 -6.68983,20.04058 l -0.28201,6.09966 -1.29046,-1.56385 z"
       id="path4463"
       inkscape:connector-curvature="0" />
    <path
       style="fill:#ff9955;stroke:#4d4d4d;stroke-width:0;stroke-miterlimit:4;stroke-dasharray:none"
       d="m 272.29619,271.30998 c -3.76994,-4.61298 -8.29898,-9.99698 -10.06453,-11.96444 l -3.2101,-3.5772 5.07514,-3.17765 c 2.79132,-1.74771 6.51412,-4.2844 8.27288,-5.6371 4.69328,-3.6097 12.1815,-13.18449 16.32166,-20.86964 1.18031,-2.19094 2.56018,-4.67336 3.06638,-5.5165 l 0.92036,-1.53298 0.80924,1.57736 c 2.59343,5.05512 7.57751,19.11232 9.51412,26.83385 0.94451,3.76586 0.95901,4.07528 0.25973,5.54169 -1.05284,2.20783 -4.25615,5.5449 -6.34613,6.61113 -2.6191,1.33616 -4.40534,0.8534 -6.53179,-1.76533 -3.67095,-4.52079 -4.65965,-5.00185 -6.42282,-3.12504 -1.91793,2.04155 -3.58472,9.7659 -4.46329,20.68409 l -0.34642,4.30501 -6.85443,-8.38725 z"
       id="path4465"
       inkscape:connector-curvature="0" />
    <path
       style="fill:#ff9955;stroke:#4d4d4d;stroke-width:0;stroke-miterlimit:4;stroke-dasharray:none"
       d="m 307.27604,317.69268 c -2.21576,-3.67968 -5.44143,-8.82362 -7.16814,-11.43098 -1.72671,-2.60736 -3.22658,-4.96764 -3.33304,-5.24508 -0.28037,-0.73062 12.70491,-9.78597 13.20667,-9.20974 0.43203,0.49615 1.93677,32.57612 1.52801,32.57612 -0.11266,0 -2.01774,-3.01064 -4.2335,-6.69032 z"
       id="path4467"
       inkscape:connector-curvature="0" />
    <path
       style="fill:#ff9955;stroke:#4d4d4d;stroke-width:0;stroke-miterlimit:4;stroke-dasharray:none"
       d="m 184.57893,268.2214 c 0,-3.09066 1.06869,-8.59389 3.20796,-16.51947 2.96251,-10.97545 3.32433,-19.89069 1.06732,-26.29853 -0.97083,-2.7563 -5.16544,-8.98873 -6.35375,-9.44052 -1.48351,-0.56403 -2.89036,-0.0258 -3.14268,1.20235 -0.122,0.59387 -0.33118,1.64106 -0.46484,2.32711 -0.13366,0.68604 -0.64817,2.2679 -1.14336,3.51525 -0.74516,1.877 -1.36505,2.56791 -3.59641,4.00839 -3.2954,2.12741 -4.50819,2.00489 -7.47107,-0.75478 l -2.03224,-1.89287 -0.91966,-6.57692 c -1.95114,-13.95355 -3.15862,-26.30772 -2.57129,-26.30772 0.66332,0 14.00778,4.79825 17.26863,6.20925 l 4.05419,1.75429 1.62329,5.65683 c 2.04218,7.11664 3.27419,10.16298 5.95652,14.72846 4.31505,7.34447 8.22462,11.87796 13.08128,15.16886 3.75303,2.54309 5.85774,3.5122 12.34407,5.68382 l 5.87613,1.96732 -5.57838,4.61778 c -6.79784,5.62727 -19.19835,14.99194 -26.10292,19.71254 l -5.10279,3.48873 0,-2.25017 z"
       id="path4469"
       inkscape:connector-curvature="0" />
    <path
       style="fill:#ff9955;stroke:#4d4d4d;stroke-width:0;stroke-miterlimit:4;stroke-dasharray:none"
       d="m 178.27112,272.60119 c -0.275,-0.78887 -0.41078,-1.52352 -0.30173,-1.63257 0.30955,-0.30955 3.85562,0.37952 4.11529,0.79968 0.20269,0.32796 -2.42433,2.26718 -3.07129,2.26718 -0.13325,0 -0.46728,-0.64543 -0.74227,-1.43429 z"
       id="path4471"
       inkscape:connector-curvature="0" />
    <path
       style="fill:#ff9955;stroke:#4d4d4d;stroke-width:0;stroke-miterlimit:4;stroke-dasharray:none"
       d="m 224.64582,238.79829 c -3.91122,-10.88919 -6.18269,-15.54792 -9.47026,-19.42327 -1.37377,-1.6194 -2.33947,-2.94254 -2.146,-2.94033 0.57984,0.007 5.2767,4.17726 12.72811,11.30204 l 7.03035,6.72217 -3.35321,2.2452 c -4.64097,3.10745 -4.45436,3.02584 -4.78899,2.09419 z"
       id="path4473"
       inkscape:connector-curvature="0" />
    <path
       style="fill:#89a02c;stroke:#4d4d4d;stroke-width:0;stroke-miterlimit:4;stroke-dasharray:none"
       d="m 182.05123,126.78275 c -0.40389,-6.38293 0.64849,-13.4136 2.67768,-17.88889 1.94288,-4.28492 7.56546,-11.50736 11.48926,-14.75842 5.79966,-4.805294 10.40926,-7.264772 21.86919,-11.668417 6.32474,-2.430375 8.7084,-3.13453 12.44141,-3.675298 l 1.3631,-0.197462 -0.002,1.52726 c -0.005,3.092342 -2.30572,10.683683 -4.4005,14.51684 -3.58836,6.566177 -6.39054,10.837057 -8.38415,12.778497 -4.43419,4.31815 -17.21785,13.30113 -22.23062,15.62129 -1.46757,0.67926 -5.31945,2.57743 -8.55974,4.21815 -3.24029,1.64072 -5.92591,2.98314 -5.96805,2.98314 -0.0421,0 -0.17504,-1.55551 -0.29534,-3.45669 z"
       id="path4475"
       inkscape:connector-curvature="0" />
  </g>
</svg>
